<svg viewBox="0 0 32 32" xmlns="http://www.w3.org/2000/svg" xmlns:xlink="http://www.w3.org/1999/xlink" width="32.000000" height="32.000000" fill="none">
	<defs>
		<linearGradient id="paint_linear_0" x1="4" x2="27.9777775" y1="10.6572418" y2="10.5365744" gradientUnits="userSpaceOnUse">
			<stop stop-color="rgb(245,189,77)" offset="0" stop-opacity="1" />
			<stop stop-color="rgb(248,146,34)" offset="1" stop-opacity="1" />
		</linearGradient>
	</defs>
	<rect id="home" width="32.000000" height="32.000000" x="0.000000" y="0.000000" />
	<path id="Vector" d="M27.662 14.8339L21.9942 9.37709L21.9942 5.0342C21.9942 4.47477 21.5329 4.01349 20.9735 4.01349C20.414 4.01349 19.9528 4.47477 19.9528 5.0342L19.9528 7.4142L16.6845 4.26867C16.3263 3.91044 15.7129 3.91044 15.3056 4.26867L4.33306 14.8339C3.92576 15.2412 3.87178 15.8546 4.28399 16.2619C4.6962 16.6692 5.30469 16.7232 5.71199 16.311L5.86412 16.1638L5.86412 26.9793C5.86412 27.5387 6.32539 28 6.88482 28L25.1593 28C25.7187 28 26.1309 27.5387 26.18 27.0284L26.18 16.2668L26.2831 16.365C27.029 16.8802 27.5589 16.5171 27.7111 16.2619C28.0693 15.8546 28.0693 15.1921 27.662 14.8339ZM17.8083 26.0126L14.2358 26.0126L14.2358 20.5508L17.8083 20.5508L17.8083 26.0126ZM24.1386 26.0126L19.8006 26.0126L19.8006 19.5301C19.8006 18.9707 19.3394 18.5094 18.7799 18.5094L13.2151 18.5094C12.6557 18.5094 12.1944 18.9707 12.1944 19.5301L12.1944 26.0126L7.90552 26.0126L7.90552 16.0067L24.1386 16.0067L24.1386 26.0126ZM8.10181 14.0193L16.0221 6.41313L23.8638 14.0193L8.10181 14.0193Z" fill="url(#paint_linear_0)" fill-rule="nonzero" />
</svg>
